<svg xmlns="http://www.w3.org/2000/svg" viewBox="0 0 256 256" aria-label="Vite icon">
  <defs>
    <linearGradient id="g1" x1="0" y1="0" x2="1" y2="1">
      <stop offset="0%" stop-color="#41d1ff" />
      <stop offset="100%" stop-color="#bd34fe" />
    </linearGradient>
    <linearGradient id="g2" x1="1" y1="0" x2="0" y2="1">
      <stop offset="0%" stop-color="#ffea83" />
      <stop offset="8%" stop-color="#ffdd35" />
      <stop offset="100%" stop-color="#ffa800" />
    </linearGradient>
  </defs>
  <path fill="url(#g1)" d="M20.7 41.3c-2.2-5.3 2-10.9 7.8-10.4l199.7 17.3c6.5.6 9.6 8.3 5.1 13.2L134.7 208.3c-3.5 3.8-9.7 3-12.2-1.5Z"/>
  <path fill="url(#g2)" d="M88.2 150.7 64.6 105c-2.5-4.9 1.1-10.8 6.6-10.8h23.9c3.1 0 5.9-1.8 7.2-4.6L134 40.9c2.4-5 9.4-5 11.8 0l16.1 33.4c1.3 2.8 4.1 4.6 7.2 4.6h23.9c5.5 0 9 5.9 6.6 10.8l-23.7 45.7a8 8 0 0 1-6.6 4.2l-68.5.1a8 8 0 0 1-6.6-4.2Z"/>
</svg>
